<mxfile host="app.diagrams.net" modified="2021-07-18T05:01:46.900Z" agent="5.0 (Macintosh; Intel Mac OS X 10_15_7) AppleWebKit/537.36 (KHTML, like Gecko) Chrome/91.0.4472.114 Safari/537.36" etag="cNAwCB4l703seJHlAikW" version="14.8.5" type="github">
  <diagram id="Oj8NqFSBarR0M2Nu3QNz" name="Page-1">
    <mxGraphModel dx="946" dy="537" grid="1" gridSize="10" guides="1" tooltips="1" connect="1" arrows="1" fold="1" page="1" pageScale="1" pageWidth="1654" pageHeight="2336" math="0" shadow="0">
      <root>
        <mxCell id="0" />
        <mxCell id="1" parent="0" />
        <mxCell id="njdD4i6L9vIy_sIaQw0u-1" value="" style="rounded=0;whiteSpace=wrap;html=1;" parent="1" vertex="1">
          <mxGeometry x="324" y="140" width="790" height="295" as="geometry" />
        </mxCell>
        <mxCell id="njdD4i6L9vIy_sIaQw0u-17" style="edgeStyle=orthogonalEdgeStyle;rounded=0;orthogonalLoop=1;jettySize=auto;html=1;exitX=1;exitY=0.5;exitDx=0;exitDy=0;entryX=0;entryY=0.5;entryDx=0;entryDy=0;fontSize=14;" parent="1" source="njdD4i6L9vIy_sIaQw0u-2" target="njdD4i6L9vIy_sIaQw0u-3" edge="1">
          <mxGeometry relative="1" as="geometry" />
        </mxCell>
        <mxCell id="njdD4i6L9vIy_sIaQw0u-31" style="edgeStyle=orthogonalEdgeStyle;rounded=0;orthogonalLoop=1;jettySize=auto;html=1;exitX=0.5;exitY=1;exitDx=0;exitDy=0;fontSize=14;endArrow=none;endFill=0;" parent="1" source="njdD4i6L9vIy_sIaQw0u-2" edge="1">
          <mxGeometry relative="1" as="geometry">
            <mxPoint x="540" y="320" as="targetPoint" />
          </mxGeometry>
        </mxCell>
        <mxCell id="njdD4i6L9vIy_sIaQw0u-2" value="&lt;font style=&quot;font-size: 14px&quot;&gt;baseParse()&lt;/font&gt;" style="rounded=0;whiteSpace=wrap;html=1;fillColor=#51C4F0;" parent="1" vertex="1">
          <mxGeometry x="480" y="240" width="120" height="50" as="geometry" />
        </mxCell>
        <mxCell id="njdD4i6L9vIy_sIaQw0u-18" style="edgeStyle=orthogonalEdgeStyle;rounded=0;orthogonalLoop=1;jettySize=auto;html=1;exitX=1;exitY=0.5;exitDx=0;exitDy=0;fontSize=14;" parent="1" source="njdD4i6L9vIy_sIaQw0u-3" target="njdD4i6L9vIy_sIaQw0u-6" edge="1">
          <mxGeometry relative="1" as="geometry" />
        </mxCell>
        <mxCell id="njdD4i6L9vIy_sIaQw0u-32" style="edgeStyle=orthogonalEdgeStyle;rounded=0;orthogonalLoop=1;jettySize=auto;html=1;exitX=0.5;exitY=1;exitDx=0;exitDy=0;fontSize=14;endArrow=none;endFill=0;" parent="1" source="njdD4i6L9vIy_sIaQw0u-3" edge="1">
          <mxGeometry relative="1" as="geometry">
            <mxPoint x="719" y="320" as="targetPoint" />
          </mxGeometry>
        </mxCell>
        <mxCell id="njdD4i6L9vIy_sIaQw0u-3" value="&lt;font style=&quot;font-size: 14px&quot;&gt;transform()&lt;/font&gt;" style="rounded=0;whiteSpace=wrap;html=1;fillColor=#51C4F0;" parent="1" vertex="1">
          <mxGeometry x="659" y="240" width="120" height="50" as="geometry" />
        </mxCell>
        <mxCell id="njdD4i6L9vIy_sIaQw0u-25" style="edgeStyle=orthogonalEdgeStyle;rounded=0;orthogonalLoop=1;jettySize=auto;html=1;exitX=1;exitY=0.5;exitDx=0;exitDy=0;entryX=0;entryY=0.5;entryDx=0;entryDy=0;fontSize=14;" parent="1" source="njdD4i6L9vIy_sIaQw0u-6" target="njdD4i6L9vIy_sIaQw0u-23" edge="1">
          <mxGeometry relative="1" as="geometry" />
        </mxCell>
        <mxCell id="njdD4i6L9vIy_sIaQw0u-33" style="edgeStyle=orthogonalEdgeStyle;rounded=0;orthogonalLoop=1;jettySize=auto;html=1;exitX=0.5;exitY=1;exitDx=0;exitDy=0;fontSize=14;endArrow=none;endFill=0;" parent="1" source="njdD4i6L9vIy_sIaQw0u-6" edge="1">
          <mxGeometry relative="1" as="geometry">
            <mxPoint x="900" y="320" as="targetPoint" />
          </mxGeometry>
        </mxCell>
        <mxCell id="njdD4i6L9vIy_sIaQw0u-6" value="&lt;font style=&quot;font-size: 14px&quot;&gt;generate()&lt;/font&gt;" style="rounded=0;whiteSpace=wrap;html=1;fillColor=#51C4F0;" parent="1" vertex="1">
          <mxGeometry x="840" y="240" width="120" height="50" as="geometry" />
        </mxCell>
        <mxCell id="njdD4i6L9vIy_sIaQw0u-7" value="" style="rounded=0;whiteSpace=wrap;html=1;" parent="1" vertex="1">
          <mxGeometry x="322" y="459" width="790" height="295" as="geometry" />
        </mxCell>
        <mxCell id="njdD4i6L9vIy_sIaQw0u-13" style="edgeStyle=orthogonalEdgeStyle;rounded=0;orthogonalLoop=1;jettySize=auto;html=1;exitX=1;exitY=0;exitDx=0;exitDy=0;" parent="1" source="njdD4i6L9vIy_sIaQw0u-8" edge="1">
          <mxGeometry relative="1" as="geometry">
            <mxPoint x="790" y="572" as="targetPoint" />
          </mxGeometry>
        </mxCell>
        <mxCell id="njdD4i6L9vIy_sIaQw0u-15" value="更新" style="edgeLabel;html=1;align=center;verticalAlign=middle;resizable=0;points=[];fontSize=13;" parent="njdD4i6L9vIy_sIaQw0u-13" vertex="1" connectable="0">
          <mxGeometry x="0.0727" y="3" relative="1" as="geometry">
            <mxPoint as="offset" />
          </mxGeometry>
        </mxCell>
        <mxCell id="njdD4i6L9vIy_sIaQw0u-8" value="&lt;font style=&quot;font-size: 14px&quot;&gt;数据&lt;/font&gt;" style="ellipse;whiteSpace=wrap;html=1;aspect=fixed;fillColor=#55A1FA;" parent="1" vertex="1">
          <mxGeometry x="437" y="560" width="80" height="80" as="geometry" />
        </mxCell>
        <mxCell id="njdD4i6L9vIy_sIaQw0u-14" style="edgeStyle=orthogonalEdgeStyle;rounded=0;orthogonalLoop=1;jettySize=auto;html=1;exitX=0;exitY=0.75;exitDx=0;exitDy=0;entryX=0.775;entryY=0.9;entryDx=0;entryDy=0;entryPerimeter=0;" parent="1" source="njdD4i6L9vIy_sIaQw0u-9" target="njdD4i6L9vIy_sIaQw0u-8" edge="1">
          <mxGeometry relative="1" as="geometry">
            <Array as="points">
              <mxPoint x="790" y="632" />
            </Array>
          </mxGeometry>
        </mxCell>
        <mxCell id="njdD4i6L9vIy_sIaQw0u-16" value="订阅" style="edgeLabel;html=1;align=center;verticalAlign=middle;resizable=0;points=[];fontSize=10;" parent="njdD4i6L9vIy_sIaQw0u-14" vertex="1" connectable="0">
          <mxGeometry x="-0.1037" y="-1" relative="1" as="geometry">
            <mxPoint as="offset" />
          </mxGeometry>
        </mxCell>
        <mxCell id="njdD4i6L9vIy_sIaQw0u-9" value="视图" style="swimlane;fillColor=#51C4F0;fontSize=14;" parent="1" vertex="1">
          <mxGeometry x="790" y="520" width="210" height="160" as="geometry" />
        </mxCell>
        <mxCell id="njdD4i6L9vIy_sIaQw0u-24" style="edgeStyle=orthogonalEdgeStyle;rounded=0;orthogonalLoop=1;jettySize=auto;html=1;exitX=1;exitY=0.5;exitDx=0;exitDy=0;entryX=0;entryY=0.5;entryDx=0;entryDy=0;fontSize=14;" parent="1" source="njdD4i6L9vIy_sIaQw0u-20" target="njdD4i6L9vIy_sIaQw0u-2" edge="1">
          <mxGeometry relative="1" as="geometry" />
        </mxCell>
        <mxCell id="njdD4i6L9vIy_sIaQw0u-20" value="模版 &amp;lt;template&amp;gt;" style="text;html=1;strokeColor=none;fillColor=none;align=center;verticalAlign=middle;whiteSpace=wrap;rounded=0;fontSize=14;" parent="1" vertex="1">
          <mxGeometry x="380" y="255" width="50" height="20" as="geometry" />
        </mxCell>
        <mxCell id="njdD4i6L9vIy_sIaQw0u-23" value="render() 函数&amp;nbsp;" style="text;html=1;strokeColor=none;fillColor=none;align=center;verticalAlign=middle;whiteSpace=wrap;rounded=0;fontSize=14;" parent="1" vertex="1">
          <mxGeometry x="1000" y="255" width="50" height="20" as="geometry" />
        </mxCell>
        <mxCell id="njdD4i6L9vIy_sIaQw0u-27" value="&lt;font color=&quot;#808080&quot;&gt;生成抽象语法树（AST）&lt;/font&gt;" style="text;html=1;strokeColor=none;fillColor=none;align=center;verticalAlign=middle;whiteSpace=wrap;rounded=0;fontSize=14;" parent="1" vertex="1">
          <mxGeometry x="495" y="335" width="90" height="10" as="geometry" />
        </mxCell>
        <mxCell id="njdD4i6L9vIy_sIaQw0u-28" value="&lt;font color=&quot;#808080&quot;&gt;转换抽象语法树&lt;/font&gt;" style="text;html=1;strokeColor=none;fillColor=none;align=center;verticalAlign=middle;whiteSpace=wrap;rounded=0;fontSize=14;" parent="1" vertex="1">
          <mxGeometry x="684" y="330" width="70" height="20" as="geometry" />
        </mxCell>
        <mxCell id="njdD4i6L9vIy_sIaQw0u-29" value="&lt;font color=&quot;#808080&quot;&gt;根据抽象语法树生成代码&lt;/font&gt;" style="text;html=1;strokeColor=none;fillColor=none;align=center;verticalAlign=middle;whiteSpace=wrap;rounded=0;fontSize=14;" parent="1" vertex="1">
          <mxGeometry x="850" y="330" width="100" height="20" as="geometry" />
        </mxCell>
        <mxCell id="njdD4i6L9vIy_sIaQw0u-34" value="" style="rounded=0;whiteSpace=wrap;html=1;" parent="1" vertex="1">
          <mxGeometry x="330" y="810" width="790" height="295" as="geometry" />
        </mxCell>
        <mxCell id="njdD4i6L9vIy_sIaQw0u-53" style="edgeStyle=orthogonalEdgeStyle;rounded=0;orthogonalLoop=1;jettySize=auto;html=1;exitX=1;exitY=0.5;exitDx=0;exitDy=0;entryX=0;entryY=1;entryDx=0;entryDy=0;fontSize=14;startArrow=none;startFill=0;endArrow=classic;endFill=1;" parent="1" source="njdD4i6L9vIy_sIaQw0u-36" target="njdD4i6L9vIy_sIaQw0u-51" edge="1">
          <mxGeometry relative="1" as="geometry">
            <Array as="points">
              <mxPoint x="754" y="955" />
            </Array>
          </mxGeometry>
        </mxCell>
        <mxCell id="njdD4i6L9vIy_sIaQw0u-36" value="&lt;font style=&quot;font-size: 14px&quot;&gt;baseParse()&lt;/font&gt;" style="rounded=0;whiteSpace=wrap;html=1;fillColor=#51C4F0;" parent="1" vertex="1">
          <mxGeometry x="634" y="927.5" width="120" height="50" as="geometry" />
        </mxCell>
        <mxCell id="njdD4i6L9vIy_sIaQw0u-52" style="edgeStyle=orthogonalEdgeStyle;rounded=0;orthogonalLoop=1;jettySize=auto;html=1;exitX=1;exitY=0;exitDx=0;exitDy=0;entryX=0;entryY=0.5;entryDx=0;entryDy=0;fontSize=14;startArrow=none;startFill=0;endArrow=classic;endFill=1;" parent="1" source="njdD4i6L9vIy_sIaQw0u-37" target="njdD4i6L9vIy_sIaQw0u-36" edge="1">
          <mxGeometry relative="1" as="geometry">
            <Array as="points">
              <mxPoint x="512" y="953" />
              <mxPoint x="573" y="953" />
            </Array>
          </mxGeometry>
        </mxCell>
        <mxCell id="njdD4i6L9vIy_sIaQw0u-37" value="&amp;lt;template&amp;gt;&lt;br&gt;字符串" style="text;html=1;strokeColor=none;fillColor=none;align=center;verticalAlign=middle;whiteSpace=wrap;rounded=0;fontSize=14;" parent="1" vertex="1">
          <mxGeometry x="442" y="947.5" width="70" height="20" as="geometry" />
        </mxCell>
        <mxCell id="njdD4i6L9vIy_sIaQw0u-40" value="root" style="ellipse;whiteSpace=wrap;html=1;aspect=fixed;fontSize=14;fillColor=#55A1FA;" parent="1" vertex="1">
          <mxGeometry x="910" y="880" width="32" height="32" as="geometry" />
        </mxCell>
        <mxCell id="njdD4i6L9vIy_sIaQw0u-41" value="child" style="ellipse;whiteSpace=wrap;html=1;aspect=fixed;fontSize=14;fillColor=#55A1FA;" parent="1" vertex="1">
          <mxGeometry x="850" y="982" width="30" height="30" as="geometry" />
        </mxCell>
        <mxCell id="njdD4i6L9vIy_sIaQw0u-42" value="child" style="ellipse;whiteSpace=wrap;html=1;aspect=fixed;fontSize=14;fillColor=#55A1FA;" parent="1" vertex="1">
          <mxGeometry x="912" y="982" width="30" height="30" as="geometry" />
        </mxCell>
        <mxCell id="njdD4i6L9vIy_sIaQw0u-43" value="child" style="ellipse;whiteSpace=wrap;html=1;aspect=fixed;fontSize=14;fillColor=#55A1FA;" parent="1" vertex="1">
          <mxGeometry x="946" y="929.5" width="30" height="30" as="geometry" />
        </mxCell>
        <mxCell id="njdD4i6L9vIy_sIaQw0u-46" value="child" style="ellipse;whiteSpace=wrap;html=1;aspect=fixed;fontSize=14;fillColor=#55A1FA;" parent="1" vertex="1">
          <mxGeometry x="971" y="982" width="30" height="30" as="geometry" />
        </mxCell>
        <mxCell id="njdD4i6L9vIy_sIaQw0u-50" value="AST" style="text;html=1;strokeColor=none;fillColor=none;align=center;verticalAlign=middle;whiteSpace=wrap;rounded=0;fontSize=14;" parent="1" vertex="1">
          <mxGeometry x="906" y="1040" width="40" height="20" as="geometry" />
        </mxCell>
        <mxCell id="njdD4i6L9vIy_sIaQw0u-51" value="child" style="ellipse;whiteSpace=wrap;html=1;aspect=fixed;fontSize=14;fillColor=#55A1FA;" parent="1" vertex="1">
          <mxGeometry x="880" y="929.5" width="30" height="30" as="geometry" />
        </mxCell>
        <mxCell id="njdD4i6L9vIy_sIaQw0u-54" value="" style="endArrow=none;html=1;fontSize=14;exitX=1;exitY=0;exitDx=0;exitDy=0;" parent="1" edge="1">
          <mxGeometry width="50" height="50" relative="1" as="geometry">
            <mxPoint x="870.6066017177982" y="984.3933982822018" as="sourcePoint" />
            <mxPoint x="885" y="957.5" as="targetPoint" />
          </mxGeometry>
        </mxCell>
        <mxCell id="njdD4i6L9vIy_sIaQw0u-55" value="" style="endArrow=none;html=1;fontSize=14;exitX=1;exitY=0;exitDx=0;exitDy=0;" parent="1" edge="1">
          <mxGeometry width="50" height="50" relative="1" as="geometry">
            <mxPoint x="902.6066017177982" y="931.5033982822018" as="sourcePoint" />
            <mxPoint x="917" y="904.61" as="targetPoint" />
          </mxGeometry>
        </mxCell>
        <mxCell id="njdD4i6L9vIy_sIaQw0u-56" value="" style="endArrow=none;html=1;fontSize=14;entryX=1;entryY=1;entryDx=0;entryDy=0;exitX=0;exitY=0;exitDx=0;exitDy=0;" parent="1" edge="1">
          <mxGeometry width="50" height="50" relative="1" as="geometry">
            <mxPoint x="953.3933982822018" y="929.8933982822018" as="sourcePoint" />
            <mxPoint x="940.6066017177982" y="901.6066017177982" as="targetPoint" />
          </mxGeometry>
        </mxCell>
        <mxCell id="njdD4i6L9vIy_sIaQw0u-57" value="" style="endArrow=none;html=1;fontSize=14;entryX=1;entryY=1;entryDx=0;entryDy=0;exitX=0;exitY=0;exitDx=0;exitDy=0;" parent="1" edge="1">
          <mxGeometry width="50" height="50" relative="1" as="geometry">
            <mxPoint x="978.3933982822018" y="984.3933982822018" as="sourcePoint" />
            <mxPoint x="968.2166017177982" y="957.4966017177982" as="targetPoint" />
          </mxGeometry>
        </mxCell>
        <mxCell id="njdD4i6L9vIy_sIaQw0u-58" value="" style="endArrow=none;html=1;fontSize=14;" parent="1" edge="1">
          <mxGeometry width="50" height="50" relative="1" as="geometry">
            <mxPoint x="940" y="988" as="sourcePoint" />
            <mxPoint x="952" y="957" as="targetPoint" />
          </mxGeometry>
        </mxCell>
        <mxCell id="njdD4i6L9vIy_sIaQw0u-59" value="" style="endArrow=none;html=1;fontSize=14;entryX=1;entryY=1;entryDx=0;entryDy=0;" parent="1" edge="1">
          <mxGeometry width="50" height="50" relative="1" as="geometry">
            <mxPoint x="920" y="982" as="sourcePoint" />
            <mxPoint x="905.9966017177983" y="955.1066017177981" as="targetPoint" />
          </mxGeometry>
        </mxCell>
        <mxCell id="njdD4i6L9vIy_sIaQw0u-60" value="" style="rounded=0;whiteSpace=wrap;html=1;" parent="1" vertex="1">
          <mxGeometry x="322" y="1160" width="770" height="295" as="geometry" />
        </mxCell>
        <mxCell id="njdD4i6L9vIy_sIaQw0u-101" style="edgeStyle=orthogonalEdgeStyle;rounded=0;orthogonalLoop=1;jettySize=auto;html=1;exitX=1;exitY=0.5;exitDx=0;exitDy=0;entryX=0;entryY=0.5;entryDx=0;entryDy=0;fontSize=14;startArrow=none;startFill=0;endArrow=classic;endFill=1;" parent="1" source="njdD4i6L9vIy_sIaQw0u-63" target="njdD4i6L9vIy_sIaQw0u-91" edge="1">
          <mxGeometry relative="1" as="geometry" />
        </mxCell>
        <mxCell id="njdD4i6L9vIy_sIaQw0u-104" style="edgeStyle=orthogonalEdgeStyle;rounded=0;orthogonalLoop=1;jettySize=auto;html=1;exitX=0.5;exitY=0;exitDx=0;exitDy=0;entryX=0.5;entryY=1;entryDx=0;entryDy=0;fontSize=14;startArrow=none;startFill=0;endArrow=classic;endFill=1;" parent="1" source="njdD4i6L9vIy_sIaQw0u-63" target="njdD4i6L9vIy_sIaQw0u-77" edge="1">
          <mxGeometry relative="1" as="geometry" />
        </mxCell>
        <mxCell id="njdD4i6L9vIy_sIaQw0u-63" value="&lt;font style=&quot;font-size: 14px&quot;&gt;transform()&lt;/font&gt;" style="rounded=0;whiteSpace=wrap;html=1;fillColor=#51C4F0;" parent="1" vertex="1">
          <mxGeometry x="634" y="1299.5" width="120" height="50" as="geometry" />
        </mxCell>
        <mxCell id="njdD4i6L9vIy_sIaQw0u-64" value="root" style="ellipse;whiteSpace=wrap;html=1;aspect=fixed;fontSize=14;fillColor=#55A1FA;" parent="1" vertex="1">
          <mxGeometry x="450" y="1260" width="32" height="32" as="geometry" />
        </mxCell>
        <mxCell id="njdD4i6L9vIy_sIaQw0u-65" value="child" style="ellipse;whiteSpace=wrap;html=1;aspect=fixed;fontSize=14;fillColor=#55A1FA;" parent="1" vertex="1">
          <mxGeometry x="390" y="1362" width="30" height="30" as="geometry" />
        </mxCell>
        <mxCell id="njdD4i6L9vIy_sIaQw0u-66" value="child" style="ellipse;whiteSpace=wrap;html=1;aspect=fixed;fontSize=14;fillColor=#55A1FA;" parent="1" vertex="1">
          <mxGeometry x="452" y="1362" width="30" height="30" as="geometry" />
        </mxCell>
        <mxCell id="njdD4i6L9vIy_sIaQw0u-99" style="edgeStyle=orthogonalEdgeStyle;rounded=0;orthogonalLoop=1;jettySize=auto;html=1;exitX=1;exitY=0.5;exitDx=0;exitDy=0;entryX=0;entryY=0.5;entryDx=0;entryDy=0;fontSize=14;startArrow=none;startFill=0;endArrow=classic;endFill=1;" parent="1" source="njdD4i6L9vIy_sIaQw0u-67" target="njdD4i6L9vIy_sIaQw0u-63" edge="1">
          <mxGeometry relative="1" as="geometry" />
        </mxCell>
        <mxCell id="njdD4i6L9vIy_sIaQw0u-67" value="child" style="ellipse;whiteSpace=wrap;html=1;aspect=fixed;fontSize=14;fillColor=#55A1FA;" parent="1" vertex="1">
          <mxGeometry x="486" y="1309.5" width="30" height="30" as="geometry" />
        </mxCell>
        <mxCell id="njdD4i6L9vIy_sIaQw0u-68" value="child" style="ellipse;whiteSpace=wrap;html=1;aspect=fixed;fontSize=14;fillColor=#55A1FA;" parent="1" vertex="1">
          <mxGeometry x="511" y="1362" width="30" height="30" as="geometry" />
        </mxCell>
        <mxCell id="njdD4i6L9vIy_sIaQw0u-69" value="AST" style="text;html=1;strokeColor=none;fillColor=none;align=center;verticalAlign=middle;whiteSpace=wrap;rounded=0;fontSize=14;" parent="1" vertex="1">
          <mxGeometry x="442" y="1413" width="40" height="20" as="geometry" />
        </mxCell>
        <mxCell id="njdD4i6L9vIy_sIaQw0u-70" value="child" style="ellipse;whiteSpace=wrap;html=1;aspect=fixed;fontSize=14;fillColor=#55A1FA;" parent="1" vertex="1">
          <mxGeometry x="420" y="1309.5" width="30" height="30" as="geometry" />
        </mxCell>
        <mxCell id="njdD4i6L9vIy_sIaQw0u-71" value="" style="endArrow=none;html=1;fontSize=14;exitX=1;exitY=0;exitDx=0;exitDy=0;" parent="1" edge="1">
          <mxGeometry width="50" height="50" relative="1" as="geometry">
            <mxPoint x="410.6066017177982" y="1364.3933982822018" as="sourcePoint" />
            <mxPoint x="425" y="1337.5" as="targetPoint" />
          </mxGeometry>
        </mxCell>
        <mxCell id="njdD4i6L9vIy_sIaQw0u-72" value="" style="endArrow=none;html=1;fontSize=14;exitX=1;exitY=0;exitDx=0;exitDy=0;" parent="1" edge="1">
          <mxGeometry width="50" height="50" relative="1" as="geometry">
            <mxPoint x="442.6066017177982" y="1311.503398282202" as="sourcePoint" />
            <mxPoint x="457" y="1284.6100000000001" as="targetPoint" />
          </mxGeometry>
        </mxCell>
        <mxCell id="njdD4i6L9vIy_sIaQw0u-73" value="" style="endArrow=none;html=1;fontSize=14;entryX=1;entryY=1;entryDx=0;entryDy=0;exitX=0;exitY=0;exitDx=0;exitDy=0;" parent="1" edge="1">
          <mxGeometry width="50" height="50" relative="1" as="geometry">
            <mxPoint x="493.3933982822018" y="1309.8933982822018" as="sourcePoint" />
            <mxPoint x="480.6066017177982" y="1281.6066017177982" as="targetPoint" />
          </mxGeometry>
        </mxCell>
        <mxCell id="njdD4i6L9vIy_sIaQw0u-74" value="" style="endArrow=none;html=1;fontSize=14;entryX=1;entryY=1;entryDx=0;entryDy=0;exitX=0;exitY=0;exitDx=0;exitDy=0;" parent="1" edge="1">
          <mxGeometry width="50" height="50" relative="1" as="geometry">
            <mxPoint x="518.3933982822018" y="1364.3933982822018" as="sourcePoint" />
            <mxPoint x="508.2166017177983" y="1337.496601717798" as="targetPoint" />
          </mxGeometry>
        </mxCell>
        <mxCell id="njdD4i6L9vIy_sIaQw0u-75" value="" style="endArrow=none;html=1;fontSize=14;" parent="1" edge="1">
          <mxGeometry width="50" height="50" relative="1" as="geometry">
            <mxPoint x="480" y="1368" as="sourcePoint" />
            <mxPoint x="492" y="1337" as="targetPoint" />
          </mxGeometry>
        </mxCell>
        <mxCell id="njdD4i6L9vIy_sIaQw0u-76" value="" style="endArrow=none;html=1;fontSize=14;entryX=1;entryY=1;entryDx=0;entryDy=0;" parent="1" edge="1">
          <mxGeometry width="50" height="50" relative="1" as="geometry">
            <mxPoint x="460" y="1362" as="sourcePoint" />
            <mxPoint x="445.9966017177985" y="1335.1066017177982" as="targetPoint" />
          </mxGeometry>
        </mxCell>
        <mxCell id="njdD4i6L9vIy_sIaQw0u-102" style="edgeStyle=orthogonalEdgeStyle;rounded=0;orthogonalLoop=1;jettySize=auto;html=1;exitX=1;exitY=0.5;exitDx=0;exitDy=0;entryX=0;entryY=0.5;entryDx=0;entryDy=0;fontSize=14;startArrow=none;startFill=0;endArrow=classic;endFill=1;" parent="1" source="njdD4i6L9vIy_sIaQw0u-77" target="njdD4i6L9vIy_sIaQw0u-78" edge="1">
          <mxGeometry relative="1" as="geometry" />
        </mxCell>
        <mxCell id="njdD4i6L9vIy_sIaQw0u-106" value="静态节点" style="edgeLabel;html=1;align=center;verticalAlign=middle;resizable=0;points=[];fontSize=13;" parent="njdD4i6L9vIy_sIaQw0u-102" vertex="1" connectable="0">
          <mxGeometry x="-0.1471" y="1" relative="1" as="geometry">
            <mxPoint as="offset" />
          </mxGeometry>
        </mxCell>
        <mxCell id="njdD4i6L9vIy_sIaQw0u-77" value="traverseNode()" style="shape=process;whiteSpace=wrap;html=1;backgroundOutline=1;fontSize=14;fillColor=#84C4F0;" parent="1" vertex="1">
          <mxGeometry x="634" y="1200" width="120" height="50" as="geometry" />
        </mxCell>
        <mxCell id="njdD4i6L9vIy_sIaQw0u-78" value="transformText()" style="shape=process;whiteSpace=wrap;html=1;backgroundOutline=1;fontSize=14;fillColor=#84C4F0;" parent="1" vertex="1">
          <mxGeometry x="851" y="1200" width="120" height="50" as="geometry" />
        </mxCell>
        <mxCell id="njdD4i6L9vIy_sIaQw0u-85" value="root" style="ellipse;whiteSpace=wrap;html=1;aspect=fixed;fontSize=14;fillColor=#55A1FA;" parent="1" vertex="1">
          <mxGeometry x="900" y="1260" width="32" height="32" as="geometry" />
        </mxCell>
        <mxCell id="njdD4i6L9vIy_sIaQw0u-86" value="child" style="ellipse;whiteSpace=wrap;html=1;aspect=fixed;fontSize=14;fillColor=#55A1FA;" parent="1" vertex="1">
          <mxGeometry x="840" y="1362" width="30" height="30" as="geometry" />
        </mxCell>
        <mxCell id="njdD4i6L9vIy_sIaQw0u-87" value="child" style="ellipse;whiteSpace=wrap;html=1;aspect=fixed;fontSize=14;fillColor=#55A1FA;" parent="1" vertex="1">
          <mxGeometry x="902" y="1362" width="30" height="30" as="geometry" />
        </mxCell>
        <mxCell id="njdD4i6L9vIy_sIaQw0u-88" value="child" style="ellipse;whiteSpace=wrap;html=1;aspect=fixed;fontSize=14;fillColor=#55A1FA;" parent="1" vertex="1">
          <mxGeometry x="936" y="1309.5" width="30" height="30" as="geometry" />
        </mxCell>
        <mxCell id="njdD4i6L9vIy_sIaQw0u-89" value="child" style="ellipse;whiteSpace=wrap;html=1;aspect=fixed;fontSize=14;fillColor=#55A1FA;" parent="1" vertex="1">
          <mxGeometry x="961" y="1362" width="30" height="30" as="geometry" />
        </mxCell>
        <mxCell id="njdD4i6L9vIy_sIaQw0u-90" value="AST（转换后）" style="text;html=1;strokeColor=none;fillColor=none;align=center;verticalAlign=middle;whiteSpace=wrap;rounded=0;fontSize=14;" parent="1" vertex="1">
          <mxGeometry x="874" y="1413" width="102" height="20" as="geometry" />
        </mxCell>
        <mxCell id="njdD4i6L9vIy_sIaQw0u-91" value="child" style="ellipse;whiteSpace=wrap;html=1;aspect=fixed;fontSize=14;fillColor=#55A1FA;" parent="1" vertex="1">
          <mxGeometry x="870" y="1309.5" width="30" height="30" as="geometry" />
        </mxCell>
        <mxCell id="njdD4i6L9vIy_sIaQw0u-92" value="" style="endArrow=none;html=1;fontSize=14;exitX=1;exitY=0;exitDx=0;exitDy=0;" parent="1" edge="1">
          <mxGeometry width="50" height="50" relative="1" as="geometry">
            <mxPoint x="860.6066017177982" y="1364.3933982822018" as="sourcePoint" />
            <mxPoint x="875" y="1337.5" as="targetPoint" />
          </mxGeometry>
        </mxCell>
        <mxCell id="njdD4i6L9vIy_sIaQw0u-93" value="" style="endArrow=none;html=1;fontSize=14;exitX=1;exitY=0;exitDx=0;exitDy=0;entryX=0;entryY=1;entryDx=0;entryDy=0;" parent="1" target="njdD4i6L9vIy_sIaQw0u-85" edge="1">
          <mxGeometry width="50" height="50" relative="1" as="geometry">
            <mxPoint x="892.6066017177982" y="1311.503398282202" as="sourcePoint" />
            <mxPoint x="907" y="1284.6100000000001" as="targetPoint" />
          </mxGeometry>
        </mxCell>
        <mxCell id="njdD4i6L9vIy_sIaQw0u-94" value="" style="endArrow=none;html=1;fontSize=14;entryX=1;entryY=1;entryDx=0;entryDy=0;exitX=0;exitY=0;exitDx=0;exitDy=0;" parent="1" edge="1">
          <mxGeometry width="50" height="50" relative="1" as="geometry">
            <mxPoint x="943.3933982822018" y="1309.8933982822018" as="sourcePoint" />
            <mxPoint x="930.6066017177982" y="1281.6066017177982" as="targetPoint" />
          </mxGeometry>
        </mxCell>
        <mxCell id="njdD4i6L9vIy_sIaQw0u-95" value="" style="endArrow=none;html=1;fontSize=14;entryX=1;entryY=1;entryDx=0;entryDy=0;exitX=0;exitY=0;exitDx=0;exitDy=0;" parent="1" edge="1">
          <mxGeometry width="50" height="50" relative="1" as="geometry">
            <mxPoint x="968.3933982822018" y="1364.3933982822018" as="sourcePoint" />
            <mxPoint x="958.2166017177983" y="1337.496601717798" as="targetPoint" />
          </mxGeometry>
        </mxCell>
        <mxCell id="njdD4i6L9vIy_sIaQw0u-96" value="" style="endArrow=none;html=1;fontSize=14;" parent="1" edge="1">
          <mxGeometry width="50" height="50" relative="1" as="geometry">
            <mxPoint x="930" y="1368" as="sourcePoint" />
            <mxPoint x="942" y="1337" as="targetPoint" />
          </mxGeometry>
        </mxCell>
        <mxCell id="njdD4i6L9vIy_sIaQw0u-97" value="" style="endArrow=none;html=1;fontSize=14;entryX=1;entryY=1;entryDx=0;entryDy=0;" parent="1" edge="1">
          <mxGeometry width="50" height="50" relative="1" as="geometry">
            <mxPoint x="910" y="1362" as="sourcePoint" />
            <mxPoint x="895.9966017177985" y="1335.1066017177982" as="targetPoint" />
          </mxGeometry>
        </mxCell>
        <mxCell id="paMmrli_OrRN-Ds1Jk73-1" value="" style="rounded=0;whiteSpace=wrap;html=1;" vertex="1" parent="1">
          <mxGeometry x="309" y="1483" width="770" height="295" as="geometry" />
        </mxCell>
        <mxCell id="paMmrli_OrRN-Ds1Jk73-2" value="root" style="ellipse;whiteSpace=wrap;html=1;aspect=fixed;fontSize=14;fillColor=#55A1FA;" vertex="1" parent="1">
          <mxGeometry x="419.5" y="1580" width="32" height="32" as="geometry" />
        </mxCell>
        <mxCell id="paMmrli_OrRN-Ds1Jk73-3" value="child" style="ellipse;whiteSpace=wrap;html=1;aspect=fixed;fontSize=14;fillColor=#55A1FA;" vertex="1" parent="1">
          <mxGeometry x="359.5" y="1682" width="30" height="30" as="geometry" />
        </mxCell>
        <mxCell id="paMmrli_OrRN-Ds1Jk73-4" value="child" style="ellipse;whiteSpace=wrap;html=1;aspect=fixed;fontSize=14;fillColor=#55A1FA;" vertex="1" parent="1">
          <mxGeometry x="421.5" y="1682" width="30" height="30" as="geometry" />
        </mxCell>
        <mxCell id="paMmrli_OrRN-Ds1Jk73-19" style="edgeStyle=orthogonalEdgeStyle;rounded=0;orthogonalLoop=1;jettySize=auto;html=1;exitX=1;exitY=0.5;exitDx=0;exitDy=0;" edge="1" parent="1" source="paMmrli_OrRN-Ds1Jk73-5" target="paMmrli_OrRN-Ds1Jk73-15">
          <mxGeometry relative="1" as="geometry" />
        </mxCell>
        <mxCell id="paMmrli_OrRN-Ds1Jk73-5" value="child" style="ellipse;whiteSpace=wrap;html=1;aspect=fixed;fontSize=14;fillColor=#55A1FA;" vertex="1" parent="1">
          <mxGeometry x="455.5" y="1629.5" width="30" height="30" as="geometry" />
        </mxCell>
        <mxCell id="paMmrli_OrRN-Ds1Jk73-6" value="child" style="ellipse;whiteSpace=wrap;html=1;aspect=fixed;fontSize=14;fillColor=#55A1FA;" vertex="1" parent="1">
          <mxGeometry x="480.5" y="1682" width="30" height="30" as="geometry" />
        </mxCell>
        <mxCell id="paMmrli_OrRN-Ds1Jk73-7" value="AST（转换后）" style="text;html=1;strokeColor=none;fillColor=none;align=center;verticalAlign=middle;whiteSpace=wrap;rounded=0;fontSize=14;" vertex="1" parent="1">
          <mxGeometry x="393.5" y="1733" width="102" height="20" as="geometry" />
        </mxCell>
        <mxCell id="paMmrli_OrRN-Ds1Jk73-8" value="child" style="ellipse;whiteSpace=wrap;html=1;aspect=fixed;fontSize=14;fillColor=#55A1FA;" vertex="1" parent="1">
          <mxGeometry x="389.5" y="1629.5" width="30" height="30" as="geometry" />
        </mxCell>
        <mxCell id="paMmrli_OrRN-Ds1Jk73-9" value="" style="endArrow=none;html=1;fontSize=14;exitX=1;exitY=0;exitDx=0;exitDy=0;" edge="1" parent="1">
          <mxGeometry width="50" height="50" relative="1" as="geometry">
            <mxPoint x="380.1066017177982" y="1684.3933982822018" as="sourcePoint" />
            <mxPoint x="394.5" y="1657.5" as="targetPoint" />
          </mxGeometry>
        </mxCell>
        <mxCell id="paMmrli_OrRN-Ds1Jk73-10" value="" style="endArrow=none;html=1;fontSize=14;exitX=1;exitY=0;exitDx=0;exitDy=0;entryX=0;entryY=1;entryDx=0;entryDy=0;" edge="1" parent="1" target="paMmrli_OrRN-Ds1Jk73-2">
          <mxGeometry width="50" height="50" relative="1" as="geometry">
            <mxPoint x="412.1066017177982" y="1631.503398282202" as="sourcePoint" />
            <mxPoint x="426.5" y="1604.6100000000001" as="targetPoint" />
          </mxGeometry>
        </mxCell>
        <mxCell id="paMmrli_OrRN-Ds1Jk73-11" value="" style="endArrow=none;html=1;fontSize=14;entryX=1;entryY=1;entryDx=0;entryDy=0;exitX=0;exitY=0;exitDx=0;exitDy=0;" edge="1" parent="1">
          <mxGeometry width="50" height="50" relative="1" as="geometry">
            <mxPoint x="462.8933982822018" y="1629.8933982822018" as="sourcePoint" />
            <mxPoint x="450.1066017177982" y="1601.6066017177982" as="targetPoint" />
          </mxGeometry>
        </mxCell>
        <mxCell id="paMmrli_OrRN-Ds1Jk73-12" value="" style="endArrow=none;html=1;fontSize=14;entryX=1;entryY=1;entryDx=0;entryDy=0;exitX=0;exitY=0;exitDx=0;exitDy=0;" edge="1" parent="1">
          <mxGeometry width="50" height="50" relative="1" as="geometry">
            <mxPoint x="487.8933982822018" y="1684.3933982822018" as="sourcePoint" />
            <mxPoint x="477.7166017177983" y="1657.496601717798" as="targetPoint" />
          </mxGeometry>
        </mxCell>
        <mxCell id="paMmrli_OrRN-Ds1Jk73-13" value="" style="endArrow=none;html=1;fontSize=14;" edge="1" parent="1">
          <mxGeometry width="50" height="50" relative="1" as="geometry">
            <mxPoint x="449.5" y="1688" as="sourcePoint" />
            <mxPoint x="461.5" y="1657" as="targetPoint" />
          </mxGeometry>
        </mxCell>
        <mxCell id="paMmrli_OrRN-Ds1Jk73-14" value="" style="endArrow=none;html=1;fontSize=14;entryX=1;entryY=1;entryDx=0;entryDy=0;" edge="1" parent="1">
          <mxGeometry width="50" height="50" relative="1" as="geometry">
            <mxPoint x="429.5" y="1682" as="sourcePoint" />
            <mxPoint x="415.4966017177985" y="1655.1066017177982" as="targetPoint" />
          </mxGeometry>
        </mxCell>
        <mxCell id="paMmrli_OrRN-Ds1Jk73-20" style="edgeStyle=orthogonalEdgeStyle;rounded=0;orthogonalLoop=1;jettySize=auto;html=1;exitX=1;exitY=0.5;exitDx=0;exitDy=0;entryX=0;entryY=0.25;entryDx=0;entryDy=0;" edge="1" parent="1" source="paMmrli_OrRN-Ds1Jk73-15" target="paMmrli_OrRN-Ds1Jk73-18">
          <mxGeometry relative="1" as="geometry" />
        </mxCell>
        <mxCell id="paMmrli_OrRN-Ds1Jk73-21" style="edgeStyle=orthogonalEdgeStyle;rounded=0;orthogonalLoop=1;jettySize=auto;html=1;exitX=0.5;exitY=0;exitDx=0;exitDy=0;entryX=0.5;entryY=1;entryDx=0;entryDy=0;" edge="1" parent="1" source="paMmrli_OrRN-Ds1Jk73-15" target="paMmrli_OrRN-Ds1Jk73-16">
          <mxGeometry relative="1" as="geometry" />
        </mxCell>
        <mxCell id="paMmrli_OrRN-Ds1Jk73-22" style="edgeStyle=orthogonalEdgeStyle;rounded=0;orthogonalLoop=1;jettySize=auto;html=1;exitX=0.5;exitY=0;exitDx=0;exitDy=0;entryX=0.5;entryY=1;entryDx=0;entryDy=0;" edge="1" parent="1" source="paMmrli_OrRN-Ds1Jk73-15" target="paMmrli_OrRN-Ds1Jk73-17">
          <mxGeometry relative="1" as="geometry" />
        </mxCell>
        <mxCell id="paMmrli_OrRN-Ds1Jk73-15" value="&lt;span style=&quot;font-size: 14px&quot;&gt;generate()&lt;/span&gt;" style="rounded=0;whiteSpace=wrap;html=1;fillColor=#51C4F0;" vertex="1" parent="1">
          <mxGeometry x="650.5" y="1619.5" width="120" height="50" as="geometry" />
        </mxCell>
        <mxCell id="paMmrli_OrRN-Ds1Jk73-16" value="生成模块导出前代码" style="shape=process;whiteSpace=wrap;html=1;backgroundOutline=1;fontSize=14;fillColor=#84C4F0;" vertex="1" parent="1">
          <mxGeometry x="542" y="1520" width="120" height="50" as="geometry" />
        </mxCell>
        <mxCell id="paMmrli_OrRN-Ds1Jk73-17" value="生成模块导出后代码" style="shape=process;whiteSpace=wrap;html=1;backgroundOutline=1;fontSize=14;fillColor=#84C4F0;" vertex="1" parent="1">
          <mxGeometry x="754" y="1520" width="120" height="50" as="geometry" />
        </mxCell>
        <mxCell id="paMmrli_OrRN-Ds1Jk73-18" value="render() 函数&amp;nbsp;" style="text;html=1;strokeColor=none;fillColor=none;align=center;verticalAlign=middle;whiteSpace=wrap;rounded=0;fontSize=14;" vertex="1" parent="1">
          <mxGeometry x="932" y="1639.5" width="50" height="20" as="geometry" />
        </mxCell>
      </root>
    </mxGraphModel>
  </diagram>
</mxfile>
